<?xml version="1.0" encoding="iso-8859-1"?>
<!-- Generator: Adobe Illustrator 24.0.1, SVG Export Plug-In . SVG Version: 6.00 Build 0)  -->
<svg version="1.1" id="_x35_" xmlns="http://www.w3.org/2000/svg" xmlns:xlink="http://www.w3.org/1999/xlink" x="0px" y="0px"
	 viewBox="0 0 512 512" style="enable-background:new 0 0 512 512;" xml:space="preserve">
<style type="text/css">
	.st0{fill:#E11913;}
	.st1{opacity:0.1;fill:#040000;}
	.st2{fill:#FFFFFF;}
</style>
<g>
	<circle class="st0" cx="256" cy="256" r="256"/>
	<polygon class="st1" points="395.6,232.6 395.6,297.3 391.8,300.5 380.9,309.6 380.8,309.8 309.7,309.8 309.7,383.1 305.9,386.2 
		295.1,395.4 294.5,395.8 294.5,395.4 230.3,395.4 217.5,380.2 294.5,380.2 294.5,309.8 146.7,309.8 133.9,294.6 294.5,294.6 
		294.5,146.7 219.9,146.7 232.6,131.5 294.9,131.5 309.7,144.4 309.7,294.6 380.5,294.6 380.5,219.8 	"/>
	<polygon class="st2" points="380.2,217.5 294.5,217.5 294.5,131.8 217.5,131.8 217.5,217.5 131.8,217.5 131.8,294.5 217.5,294.5 
		217.5,380.2 294.5,380.2 294.5,294.5 380.2,294.5 	"/>
</g>
</svg>
